<svg width="214" height="234" viewBox="0 0 214 234" fill="none" xmlns="http://www.w3.org/2000/svg">
<path d="M163.367 1.59937L62.8672 39.5994C-0.632866 61.0993 0.867162 114.599 0.367162 114.599C-4.03284 152.599 32.2005 180.433 50.8672 189.599L159.812 231.241C162.174 232.143 164.646 232.8 167.167 232.988C195.231 235.076 204.867 218.078 204.867 217.599C222.998 190.403 207.184 170.281 195.402 162.371C194.072 161.478 192.619 160.806 191.128 160.222L99.2877 124.214C92.4603 121.537 92.5198 111.853 99.385 109.274C134.08 96.2428 180.036 78.9311 180.367 78.5994C218.367 69.0994 212.5 32.0001 212.5 31.5001C204.5 -1 176.2 -2.23396 163.367 1.59937Z" fill="#8D8DFF"/>
<path opacity="0.8" d="M174.5 79.1694C196.5 78 213.5 60.5 213 36.1695C211 13 191.5 -1.50004 174.08 0.168809C152.497 0.168809 135 17.6655 135 39.2488C135 60.8321 156.506 80.1259 174.5 79.1694Z" fill="#413BDB"/>
</svg>
