<svg width="215" height="234" viewBox="0 0 215 234" fill="none" xmlns="http://www.w3.org/2000/svg">
<path d="M163.367 1.60004L62.8672 39.6C-0.632866 61.1 0.867162 114.6 0.367162 114.6C-4.03284 152.6 32.2005 180.433 50.8672 189.6L159.812 231.241C162.174 232.144 164.646 232.8 167.167 232.988C195.231 235.077 204.867 218.079 204.867 217.6C222.998 190.404 207.184 170.282 195.402 162.371C194.072 161.479 192.619 160.807 191.128 160.222L99.2877 124.214C92.4603 121.538 92.5198 111.853 99.385 109.275C134.08 96.2435 180.036 78.9317 180.367 78.6001C218.367 69.1001 212.867 32.1 212.867 31.6C204.067 -1.59996 176.2 -2.23329 163.367 1.60004Z" fill="#6F6F6E" fill-opacity="0.85"/>
<path opacity="0.8" d="M175.08 78.16C196.663 78.16 214.16 60.6633 214.16 39.08C214.16 17.4967 196.663 0 175.08 0C153.497 0 136 17.4967 136 39.08C136 60.6633 153.497 78.16 175.08 78.16Z" fill="#9C9B9B"/>
</svg>
