<?xml version="1.0" encoding="UTF-8"?>
<svg id="_Слой_1" data-name="Слой 1" xmlns="http://www.w3.org/2000/svg" xmlns:xlink="http://www.w3.org/1999/xlink" viewBox="0 0 372.66 110.21">
  <defs>
    <style>
      .cls-1 {
        fill: #6a6663;
      }

      .cls-2 {
        fill: #676460;
      }

      .cls-3 {
        fill: #fff;
      }

      .cls-4 {
        fill: #efeae8;
      }

      .cls-5 {
        fill: #918b86;
      }

      .cls-6 {
        fill: #6b6864;
      }

      .cls-7 {
        fill: #65625f;
      }

      .cls-8 {
        fill: #817c78;
      }

      .cls-9 {
        fill: #74706c;
      }

      .cls-10 {
        fill: #686561;
      }

      .cls-11 {
        fill: #99938e;
      }

      .cls-12 {
        fill: #7e7975;
      }

      .cls-13 {
        fill: #98928d;
      }

      .cls-14 {
        fill: #7f7b76;
      }

      .cls-15 {
        fill: #928c88;
      }

      .cls-16 {
        fill: #9f9994;
      }

      .cls-17 {
        fill: #847f7a;
      }

      .cls-18 {
        fill: #85807c;
      }

      .cls-19 {
        fill: #b5ada8;
      }

      .cls-20 {
        fill: #b8b0aa;
      }

      .cls-21 {
        fill: #8b8681;
      }

      .cls-22 {
        fill: #9c9691;
      }

      .cls-23 {
        fill: #9e9792;
      }

      .cls-24 {
        fill: #a19a95;
      }

      .cls-25 {
        fill: #b9b1ac;
      }

      .cls-26 {
        fill: #c2b9b4;
      }

      .cls-27 {
        fill: #b3aca6;
      }

      .cls-28 {
        fill: #8f8a85;
      }

      .cls-29 {
        fill: #b6afa9;
      }

      .cls-30 {
        fill: #322f8c;
      }

      .cls-31 {
        fill: #322f8b;
      }

      .cls-32 {
        fill: #322e89;
      }

      .cls-33 {
        fill: #332f90;
      }

      .cls-34 {
        fill: #332f8e;
      }

      .cls-35 {
        fill: #30302d;
      }

      .cls-36 {
        fill: #302d7f;
      }

      .cls-37 {
        fill: #302d82;
      }

      .cls-38 {
        fill: #302d80;
      }

      .cls-39 {
        fill: #333230;
      }

      .cls-40 {
        fill: #333091;
      }

      .cls-41 {
        fill: #8e8884;
      }

      .cls-42 {
        fill: #8d8dff;
      }

      .cls-43 {
        fill: #8c8782;
      }

      .cls-44 {
        fill: #a59e99;
      }

      .cls-45 {
        fill: #afa8a2;
      }

      .cls-46 {
        fill: #a9a29d;
      }

      .cls-47 {
        fill: #bbb3ad;
      }

      .cls-48 {
        fill: #b1a9a4;
      }

      .cls-49 {
        fill: #aca5a0;
      }

      .cls-50 {
        fill: #aea6a1;
      }

      .cls-51 {
        fill: #b2aaa5;
      }

      .cls-52 {
        fill: #a49d98;
      }

      .cls-53 {
        fill: #bcb4ae;
      }

      .cls-54 {
        fill: #a6a09a;
      }

      .cls-55 {
        fill: #beb5b0;
      }

      .cls-56 {
        fill: #bfb7b1;
      }

      .cls-57 {
        fill: #aba49e;
      }

      .cls-58 {
        fill: #c0b8b2;
      }

      .cls-59 {
        fill: #ccc3bd;
      }

      .cls-60 {
        fill: #c6beb8;
      }

      .cls-61 {
        fill: #c9c0ba;
      }

      .cls-62 {
        fill: #cbc2bc;
      }

      .cls-63 {
        fill: #c3bbb5;
      }

      .cls-64 {
        fill: #c5bcb6;
      }

      .cls-65 {
        fill: #c8bfb9;
      }

      .cls-66 {
        fill: #a8a19c;
      }

      .cls-67 {
        fill: #252445;
      }

      .cls-68 {
        fill: #252447;
      }

      .cls-69 {
        fill: #252548;
      }

      .cls-70 {
        fill: #242340;
      }

      .cls-71 {
        fill: #242441;
      }

      .cls-72 {
        fill: #242443;
      }

      .cls-73 {
        fill: #242523;
      }

      .cls-74 {
        fill: #1f2026;
      }

      .cls-75 {
        fill: #1f2028;
      }

      .cls-76 {
        fill: #1f1f25;
      }

      .cls-77 {
        fill: #1e1f21;
      }

      .cls-78 {
        fill: #1e1f23;
      }

      .cls-79 {
        fill: #1e1f1d;
      }

      .cls-80 {
        fill: #1e1f1f;
      }

      .cls-81 {
        fill: #222239;
      }

      .cls-82 {
        fill: #222236;
      }

      .cls-83 {
        fill: #222237;
      }

      .cls-84 {
        fill: #222234;
      }

      .cls-85 {
        fill: #21212f;
      }

      .cls-86 {
        fill: #212130;
      }

      .cls-87 {
        fill: #212132;
      }

      .cls-88 {
        fill: #212220;
      }

      .cls-89 {
        fill: #20211f;
      }

      .cls-90 {
        fill: #20212d;
      }

      .cls-91 {
        fill: #20202b;
      }

      .cls-92 {
        fill: #20202a;
      }

      .cls-93 {
        fill: #23233c;
      }

      .cls-94 {
        fill: #23233b;
      }

      .cls-95 {
        fill: #23233e;
      }

      .cls-96 {
        fill: #232321;
      }

      .cls-97 {
        fill: #423ce1;
      }

      .cls-98 {
        fill: #423be0;
      }

      .cls-99 {
        fill: #423bde;
      }

      .cls-100 {
        fill: #43413f;
      }

      .cls-101 {
        fill: #433ce7;
      }

      .cls-102 {
        fill: #433ce3;
      }

      .cls-103 {
        fill: #433ce5;
      }

      .cls-104 {
        fill: #403ad4;
      }

      .cls-105 {
        fill: #403ad7;
      }

      .cls-106 {
        fill: #403ad6;
      }

      .cls-107 {
        fill: #403f3c;
      }

      .cls-108 {
        fill: #413bdc;
      }

      .cls-109 {
        fill: #413bdb;
      }

      .cls-110 {
        fill: #41403d;
      }

      .cls-111 {
        fill: #413ad9;
      }

      .cls-112 {
        fill: #1d1e1e;
      }

      .cls-113 {
        fill: #1d1e1c;
      }

      .cls-114 {
        fill: #363533;
      }

      .cls-115 {
        fill: #36329f;
      }

      .cls-116 {
        fill: #3632a2;
      }

      .cls-117 {
        fill: #3632a1;
      }

      .cls-118 {
        fill: #3732a4;
      }

      .cls-119 {
        fill: #3733a6;
      }

      .cls-120 {
        fill: #3733a8;
      }

      .cls-121 {
        fill: #373734;
      }

      .cls-122 {
        fill: #443de8;
      }

      .cls-123 {
        fill: #443dea;
      }

      .cls-124 {
        fill: #444340;
      }

      .cls-125 {
        fill: #454441;
      }

      .cls-126 {
        fill: #3e3d3b;
      }

      .cls-127 {
        fill: #3e38c8;
      }

      .cls-128 {
        fill: #3e38cb;
      }

      .cls-129 {
        fill: #3e38ca;
      }

      .cls-130 {
        fill: #3f39cf;
      }

      .cls-131 {
        fill: #3f39cd;
      }

      .cls-132 {
        fill: #3f39d2;
      }

      .cls-133 {
        fill: #3f39d0;
      }

      .cls-134 {
        fill: #948e89;
      }

      .cls-135 {
        fill: #6e6a67;
      }

      .cls-136 {
        fill: #6f6c68;
      }

      .cls-137 {
        fill: #a29b96;
      }

      .cls-138 {
        fill: #716d69;
      }

      .cls-139 {
        fill: #958f8a;
      }

      .cls-140 {
        fill: #96918c;
      }

      .cls-141 {
        fill: #54524f;
      }

      .cls-142 {
        fill: #53504d;
      }

      .cls-143 {
        fill: #898480;
      }

      .cls-144 {
        fill: #6d6965;
      }

      .cls-145 {
        fill: #88837e;
      }

      .cls-146 {
        fill: #87827d;
      }

      .cls-147 {
        fill: #9b9590;
      }

      .cls-148 {
        fill: #555350;
      }

      .cls-149 {
        fill: #64615d;
      }

      .cls-150 {
        fill: #5b5955;
      }

      .cls-151 {
        fill: #29285d;
      }

      .cls-152 {
        fill: #292927;
      }

      .cls-153 {
        fill: #292759;
      }

      .cls-154 {
        fill: #29275b;
      }

      .cls-155 {
        fill: #2b2c29;
      }

      .cls-156 {
        fill: #2b2967;
      }

      .cls-157 {
        fill: #2b2965;
      }

      .cls-158 {
        fill: #2b2964;
      }

      .cls-159 {
        fill: #2c2a6e;
      }

      .cls-160 {
        fill: #2c2a6c;
      }

      .cls-161 {
        fill: #2c2a69;
      }

      .cls-162 {
        fill: #2c2a6a;
      }

      .cls-163 {
        fill: #474643;
      }

      .cls-164 {
        fill: #2a285e;
      }

      .cls-165 {
        fill: #2a2a28;
      }

      .cls-166 {
        fill: #2a2860;
      }

      .cls-167 {
        fill: #2a2962;
      }

      .cls-168 {
        fill: #484744;
      }

      .cls-169 {
        fill: #2d2b71;
      }

      .cls-170 {
        fill: #2d2b73;
      }

      .cls-171 {
        fill: #2d2b6f;
      }

      .cls-172 {
        fill: #2d2d2b;
      }

      .cls-173 {
        fill: #3834ad;
      }

      .cls-174 {
        fill: #3834ab;
      }

      .cls-175 {
        fill: #3b3b38;
      }

      .cls-176 {
        fill: #383835;
      }

      .cls-177 {
        fill: #3833a9;
      }

      .cls-178 {
        fill: #26254d;
      }

      .cls-179 {
        fill: #262624;
      }

      .cls-180 {
        fill: #26254c;
      }

      .cls-181 {
        fill: #26254a;
      }

      .cls-182 {
        fill: #31312f;
      }

      .cls-183 {
        fill: #3a35b7;
      }

      .cls-184 {
        fill: #3a35b5;
      }

      .cls-185 {
        fill: #3a35b4;
      }

      .cls-186 {
        fill: #3a3937;
      }

      .cls-187 {
        fill: #35319a;
      }

      .cls-188 {
        fill: #35319c;
      }

      .cls-189 {
        fill: #35319d;
      }

      .cls-190 {
        fill: #353198;
      }

      .cls-191 {
        fill: #3b36ba;
      }

      .cls-192 {
        fill: #3b36b9;
      }

      .cls-193 {
        fill: #3b36bc;
      }

      .cls-194 {
        fill: #3d3c39;
      }

      .cls-195 {
        fill: #3d38c6;
      }

      .cls-196 {
        fill: #2e2b75;
      }

      .cls-197 {
        fill: #2e2c78;
      }

      .cls-198 {
        fill: #2e2c76;
      }

      .cls-199 {
        fill: #343093;
      }

      .cls-200 {
        fill: #343097;
      }

      .cls-201 {
        fill: #343095;
      }

      .cls-202 {
        fill: #3d37c3;
      }

      .cls-203 {
        fill: #3d37c5;
      }

      .cls-204 {
        fill: #272652;
      }

      .cls-205 {
        fill: #272651;
      }

      .cls-206 {
        fill: #27264f;
      }

      .cls-207 {
        fill: #272825;
      }

      .cls-208 {
        fill: #5a5754;
      }

      .cls-209 {
        fill: #3934ae;
      }

      .cls-210 {
        fill: #3934b0;
      }

      .cls-211 {
        fill: #3935b2;
      }

      .cls-212 {
        fill: #585653;
      }

      .cls-213 {
        fill: #575551;
      }

      .cls-214 {
        fill: #3c37c1;
      }

      .cls-215 {
        fill: #3c37bf;
      }

      .cls-216 {
        fill: #3c36be;
      }

      .cls-217 {
        fill: #2f2d7d;
      }

      .cls-218 {
        fill: #827d79;
      }

      .cls-219 {
        fill: #2f2c7a;
      }

      .cls-220 {
        fill: #2f2c7b;
      }

      .cls-221 {
        fill: #2e2e2c;
      }

      .cls-222 {
        fill: #615e5b;
      }

      .cls-223 {
        fill: #4b4a47;
      }

      .cls-224 {
        fill: #625f5c;
      }

      .cls-225 {
        fill: #4a4845;
      }

      .cls-226 {
        fill: #605d59;
      }

      .cls-227 {
        fill: #5d5a57;
      }

      .cls-228 {
        fill: #75716d;
      }

      .cls-229 {
        fill: #77736e;
      }

      .cls-230 {
        fill: #7a7571;
      }

      .cls-231 {
        fill: #5e5b58;
      }

      .cls-232 {
        fill: #726e6b;
      }

      .cls-233 {
        fill: #787470;
      }

      .cls-234 {
        fill: #504e4b;
      }

      .cls-235 {
        fill: #7c7874;
      }

      .cls-236 {
        fill: #312e87;
      }

      .cls-237 {
        fill: #312e86;
      }

      .cls-238 {
        fill: #312e84;
      }

      .cls-239 {
        fill: #282654;
      }

      .cls-240 {
        fill: #282758;
      }

      .cls-241 {
        fill: #282756;
      }

      .cls-242 {
        fill: #343431;
      }

      .cls-243 {
        fill: #4d4b48;
      }

      .cls-244 {
        fill: #7b7772;
      }

      .cls-245 {
        fill: #4e4c49;
      }

      .cls-246 {
        fill: #514f4c;
      }

      .cls-247 {
        fill: url(#_Безымянный_градиент_4);
      }
    </style>
    <linearGradient id="_Безымянный_градиент_4" data-name="Безымянный градиент 4" x1="42.86" y1="103.26" x2="72.17" y2="57.89" gradientUnits="userSpaceOnUse">
      <stop offset=".11" stop-color="#8d8dff"/>
      <stop offset=".21" stop-color="#a3a0ed"/>
      <stop offset=".37" stop-color="#beb8d8"/>
      <stop offset=".5" stop-color="#cec6cb"/>
      <stop offset=".61" stop-color="#d4ccc7"/>
      <stop offset="1" stop-color="#efeae8"/>
    </linearGradient>
  </defs>
  <g>
    <path class="cls-247" d="m64.78,80.83c-18.19-7.06-38.11-15.02-50.77-21.53,3.04,1.09,6.14,2.21,9.29,3.34,13.76,4.95,28,10.07,41.3,14.69l.19.06.19-.06c13.3-4.61,27.53-9.73,41.3-14.69,3.15-1.13,6.25-2.25,9.29-3.34-12.66,6.5-32.58,14.47-50.77,21.53Zm.19,7.26l-.19.06-.19-.06c-13.3-4.61-27.53-9.73-41.3-14.69-3.15-1.13-6.25-2.25-9.29-3.34,12.66,6.5,32.58,14.47,50.77,21.53,18.19-7.06,38.11-15.02,50.77-21.53-3.04,1.09-6.14,2.21-9.29,3.34-13.76,4.95-28,10.07-41.3,14.69Zm0,9.28l-.19.06-.19-.06c-13.3-4.61-27.53-9.73-41.3-14.69-3.15-1.13-6.25-2.25-9.29-3.34,12.66,6.5,32.58,14.47,50.77,21.53,18.19-7.06,38.11-15.02,50.77-21.53-3.04,1.09-6.14,2.21-9.29,3.34-13.76,4.95-28,10.07-41.3,14.69Z"/>
    <g>
      <g>
        <g>
          <circle class="cls-59" cx="52.6" cy="18.32" r="8.98"/>
          <circle class="cls-62" cx="52.02" cy="18.54" r="8.98"/>
          <circle class="cls-61" cx="51.44" cy="18.76" r="8.98"/>
          <circle class="cls-65" cx="50.86" cy="18.99" r="8.98"/>
          <circle class="cls-60" cx="50.28" cy="19.21" r="8.98"/>
          <circle class="cls-64" cx="49.7" cy="19.43" r="8.98"/>
          <circle class="cls-63" cx="49.12" cy="19.65" r="8.98"/>
          <circle class="cls-26" cx="48.54" cy="19.87" r="8.98"/>
          <circle class="cls-58" cx="47.96" cy="20.09" r="8.98"/>
          <circle class="cls-56" cx="47.38" cy="20.32" r="8.98"/>
          <circle class="cls-55" cx="46.8" cy="20.54" r="8.98"/>
          <circle class="cls-53" cx="46.22" cy="20.76" r="8.98"/>
          <circle class="cls-47" cx="45.64" cy="20.98" r="8.98"/>
          <circle class="cls-25" cx="45.06" cy="21.2" r="8.98"/>
          <circle class="cls-20" cx="44.48" cy="21.42" r="8.98"/>
          <circle class="cls-29" cx="43.9" cy="21.65" r="8.98"/>
          <circle class="cls-19" cx="43.32" cy="21.87" r="8.98"/>
          <circle class="cls-27" cx="42.74" cy="22.09" r="8.98"/>
          <circle class="cls-51" cx="42.16" cy="22.31" r="8.98"/>
          <circle class="cls-48" cx="41.58" cy="22.53" r="8.98"/>
          <circle class="cls-45" cx="41" cy="22.75" r="8.98"/>
          <circle class="cls-50" cx="40.42" cy="22.98" r="8.98"/>
          <circle class="cls-49" cx="39.84" cy="23.2" r="8.98"/>
          <circle class="cls-57" cx="39.26" cy="23.42" r="8.98"/>
          <circle class="cls-46" cx="38.68" cy="23.64" r="8.98"/>
          <circle class="cls-66" cx="38.1" cy="23.86" r="8.98"/>
          <circle class="cls-54" cx="37.52" cy="24.08" r="8.98"/>
          <circle class="cls-44" cx="36.94" cy="24.3" r="8.98"/>
          <circle class="cls-52" cx="36.36" cy="24.53" r="8.98"/>
          <circle class="cls-137" cx="35.78" cy="24.75" r="8.98"/>
          <circle class="cls-24" cx="35.2" cy="24.97" r="8.98"/>
          <circle class="cls-16" cx="34.62" cy="25.19" r="8.98"/>
          <circle class="cls-23" cx="34.04" cy="25.41" r="8.98"/>
          <circle class="cls-22" cx="33.46" cy="25.63" r="8.98"/>
          <circle class="cls-147" cx="32.88" cy="25.86" r="8.98"/>
          <circle class="cls-11" cx="32.3" cy="26.08" r="8.98"/>
          <circle class="cls-13" cx="31.72" cy="26.3" r="8.98"/>
          <circle class="cls-140" cx="31.14" cy="26.52" r="8.98"/>
          <circle class="cls-139" cx="30.56" cy="26.74" r="8.98"/>
          <circle class="cls-134" cx="29.87" cy="26.97" r="8.98"/>
          <circle class="cls-15" cx="29.17" cy="27.23" r="8.98"/>
          <circle class="cls-5" cx="28.5" cy="27.51" r="8.98"/>
          <circle class="cls-28" cx="27.86" cy="27.81" r="8.98"/>
          <circle class="cls-41" cx="27.24" cy="28.13" r="8.98"/>
          <circle class="cls-43" cx="26.65" cy="28.47" r="8.98"/>
          <circle class="cls-21" cx="26.09" cy="28.83" r="8.98"/>
          <circle class="cls-143" cx="25.55" cy="29.21" r="8.98"/>
          <circle class="cls-145" cx="25.05" cy="29.6" r="8.98"/>
          <circle class="cls-146" cx="24.57" cy="30.02" r="8.98"/>
          <circle class="cls-18" cx="24.13" cy="30.44" r="8.98"/>
          <circle class="cls-17" cx="23.72" cy="30.89" r="8.98"/>
          <circle class="cls-218" cx="23.34" cy="31.34" r="8.98"/>
          <circle class="cls-8" cx="23" cy="31.81" r="8.98"/>
          <circle class="cls-14" cx="22.69" cy="32.3" r="8.98"/>
          <circle class="cls-12" cx="22.41" cy="32.79" r="8.98"/>
          <circle class="cls-235" cx="22.18" cy="33.29" r="8.98"/>
          <circle class="cls-244" cx="21.98" cy="33.81" r="8.98"/>
          <circle class="cls-230" cx="21.81" cy="34.33" r="8.98"/>
          <circle class="cls-233" cx="21.69" cy="34.86" r="8.98"/>
          <circle class="cls-229" cx="21.6" cy="35.39" r="8.98"/>
          <circle class="cls-228" cx="21.56" cy="35.94" r="8.98"/>
          <circle class="cls-9" cx="21.56" cy="36.48" r="8.98"/>
          <circle class="cls-232" cx="21.6" cy="37.02" r="8.98"/>
          <circle class="cls-138" cx="21.68" cy="37.56" r="8.98"/>
          <circle class="cls-136" cx="21.8" cy="38.09" r="8.98"/>
          <circle class="cls-135" cx="21.95" cy="38.62" r="8.98"/>
          <circle class="cls-144" cx="22.15" cy="39.13" r="8.98"/>
          <circle class="cls-6" cx="22.38" cy="39.63" r="8.98"/>
          <circle class="cls-1" cx="22.65" cy="40.13" r="8.98"/>
          <circle class="cls-10" cx="22.96" cy="40.61" r="8.98"/>
          <circle class="cls-2" cx="23.3" cy="41.08" r="8.98"/>
          <circle class="cls-7" cx="23.67" cy="41.54" r="8.98"/>
          <circle class="cls-149" cx="24.08" cy="41.99" r="8.98"/>
          <circle class="cls-224" cx="24.52" cy="42.42" r="8.98"/>
          <circle class="cls-222" cx="24.99" cy="42.83" r="8.98"/>
          <circle class="cls-226" cx="25.49" cy="43.23" r="8.98"/>
          <circle class="cls-231" cx="26.02" cy="43.61" r="8.98"/>
          <circle class="cls-227" cx="26.58" cy="43.97" r="8.98"/>
          <circle class="cls-150" cx="27.17" cy="44.32" r="8.98"/>
          <circle class="cls-208" cx="27.78" cy="44.64" r="8.98"/>
          <circle class="cls-212" cx="28.42" cy="44.94" r="8.98"/>
          <circle class="cls-213" cx="29.09" cy="45.22" r="8.98"/>
          <circle class="cls-148" cx="29.78" cy="45.48" r="8.98"/>
          <circle class="cls-141" cx="30.49" cy="45.71" r="8.98"/>
          <circle class="cls-142" cx="31.07" cy="45.94" r="8.98"/>
          <circle class="cls-246" cx="31.65" cy="46.16" r="8.98"/>
          <circle class="cls-234" cx="32.23" cy="46.38" r="8.98"/>
          <circle class="cls-245" cx="32.81" cy="46.6" r="8.98"/>
          <circle class="cls-243" cx="33.39" cy="46.82" r="8.98"/>
          <circle class="cls-223" cx="33.97" cy="47.05" r="8.98"/>
          <circle class="cls-225" cx="34.55" cy="47.27" r="8.98"/>
          <circle class="cls-168" cx="35.13" cy="47.49" r="8.98"/>
          <circle class="cls-163" cx="35.71" cy="47.71" r="8.98"/>
          <circle class="cls-125" cx="36.29" cy="47.93" r="8.98"/>
          <circle class="cls-124" cx="36.87" cy="48.15" r="8.98"/>
          <circle class="cls-100" cx="37.45" cy="48.38" r="8.98"/>
          <circle class="cls-110" cx="38.03" cy="48.6" r="8.98"/>
          <circle class="cls-107" cx="38.61" cy="48.82" r="8.98"/>
          <circle class="cls-126" cx="39.19" cy="49.04" r="8.98"/>
          <circle class="cls-194" cx="39.77" cy="49.26" r="8.98"/>
          <circle class="cls-175" cx="40.35" cy="49.48" r="8.98"/>
          <circle class="cls-186" cx="40.93" cy="49.71" r="8.98"/>
          <circle class="cls-176" cx="41.51" cy="49.93" r="8.98"/>
          <circle class="cls-121" cx="42.09" cy="50.15" r="8.98"/>
          <circle class="cls-114" cx="42.67" cy="50.37" r="8.98"/>
          <circle class="cls-242" cx="43.25" cy="50.59" r="8.98"/>
          <circle class="cls-39" cx="43.83" cy="50.82" r="8.98"/>
          <circle class="cls-182" cx="44.41" cy="51.04" r="8.98"/>
          <circle class="cls-35" cx="44.99" cy="51.26" r="8.98"/>
          <circle class="cls-221" cx="45.57" cy="51.48" r="8.98"/>
          <circle class="cls-172" cx="46.15" cy="51.7" r="8.98"/>
          <circle class="cls-155" cx="46.73" cy="51.92" r="8.98"/>
          <circle class="cls-165" cx="47.31" cy="52.15" r="8.98"/>
          <circle class="cls-152" cx="47.89" cy="52.37" r="8.98"/>
          <circle class="cls-207" cx="48.47" cy="52.59" r="8.98"/>
          <circle class="cls-179" cx="49.05" cy="52.81" r="8.98"/>
          <circle class="cls-73" cx="49.63" cy="53.03" r="8.98"/>
          <circle class="cls-96" cx="50.21" cy="53.25" r="8.98"/>
          <circle class="cls-88" cx="50.79" cy="53.48" r="8.98"/>
          <circle class="cls-89" cx="51.37" cy="53.7" r="8.98"/>
          <circle class="cls-79" cx="51.95" cy="53.92" r="8.98"/>
          <circle class="cls-113" cx="52.52" cy="54.13" r="8.98"/>
        </g>
        <circle class="cls-4" cx="52.6" cy="18.32" r="8.98"/>
      </g>
      <g>
        <g>
          <circle class="cls-123" cx="76.96" cy="54.13" r="8.98"/>
          <circle class="cls-122" cx="77.54" cy="53.91" r="8.98"/>
          <circle class="cls-101" cx="78.12" cy="53.69" r="8.98"/>
          <circle class="cls-103" cx="78.7" cy="53.47" r="8.98"/>
          <circle class="cls-102" cx="79.28" cy="53.24" r="8.98"/>
          <circle class="cls-97" cx="79.86" cy="53.02" r="8.98"/>
          <circle class="cls-98" cx="80.44" cy="52.8" r="8.98"/>
          <circle class="cls-99" cx="81.02" cy="52.58" r="8.98"/>
          <circle class="cls-108" cx="81.6" cy="52.36" r="8.98"/>
          <circle class="cls-109" cx="82.18" cy="52.14" r="8.98"/>
          <circle class="cls-111" cx="82.76" cy="51.91" r="8.98"/>
          <circle class="cls-105" cx="83.34" cy="51.69" r="8.98"/>
          <circle class="cls-106" cx="83.92" cy="51.47" r="8.98"/>
          <circle class="cls-104" cx="84.5" cy="51.25" r="8.98"/>
          <circle class="cls-132" cx="85.08" cy="51.03" r="8.98"/>
          <circle class="cls-133" cx="85.66" cy="50.81" r="8.98"/>
          <circle class="cls-130" cx="86.24" cy="50.58" r="8.98"/>
          <circle class="cls-131" cx="86.82" cy="50.36" r="8.98"/>
          <circle class="cls-128" cx="87.4" cy="50.14" r="8.98"/>
          <circle class="cls-129" cx="87.98" cy="49.92" r="8.98"/>
          <circle class="cls-127" cx="88.56" cy="49.7" r="8.98"/>
          <circle class="cls-195" cx="89.14" cy="49.48" r="8.98"/>
          <circle class="cls-203" cx="89.72" cy="49.25" r="8.98"/>
          <circle class="cls-202" cx="90.3" cy="49.03" r="8.98"/>
          <circle class="cls-214" cx="90.88" cy="48.81" r="8.98"/>
          <circle class="cls-215" cx="91.46" cy="48.59" r="8.98"/>
          <circle class="cls-216" cx="92.04" cy="48.37" r="8.98"/>
          <circle class="cls-193" cx="92.62" cy="48.15" r="8.98"/>
          <circle class="cls-191" cx="93.2" cy="47.93" r="8.98"/>
          <circle class="cls-192" cx="93.78" cy="47.7" r="8.98"/>
          <circle class="cls-183" cx="94.36" cy="47.48" r="8.98"/>
          <circle class="cls-184" cx="94.94" cy="47.26" r="8.98"/>
          <circle class="cls-185" cx="95.52" cy="47.04" r="8.98"/>
          <circle class="cls-211" cx="96.1" cy="46.82" r="8.98"/>
          <circle class="cls-210" cx="96.68" cy="46.6" r="8.98"/>
          <circle class="cls-209" cx="97.26" cy="46.37" r="8.98"/>
          <circle class="cls-173" cx="97.84" cy="46.15" r="8.98"/>
          <circle class="cls-174" cx="98.42" cy="45.93" r="8.98"/>
          <circle class="cls-177" cx="99" cy="45.71" r="8.98"/>
          <circle class="cls-120" cx="99.69" cy="45.48" r="8.98"/>
          <circle class="cls-119" cx="100.38" cy="45.22" r="8.98"/>
          <circle class="cls-118" cx="101.05" cy="44.94" r="8.98"/>
          <circle class="cls-116" cx="101.7" cy="44.64" r="8.98"/>
          <circle class="cls-117" cx="102.32" cy="44.32" r="8.98"/>
          <circle class="cls-115" cx="102.91" cy="43.98" r="8.98"/>
          <circle class="cls-189" cx="103.47" cy="43.62" r="8.98"/>
          <circle class="cls-188" cx="104.01" cy="43.24" r="8.98"/>
          <circle class="cls-187" cx="104.51" cy="42.85" r="8.98"/>
          <circle class="cls-190" cx="104.99" cy="42.44" r="8.98"/>
          <circle class="cls-200" cx="105.43" cy="42.01" r="8.98"/>
          <circle class="cls-201" cx="105.84" cy="41.56" r="8.98"/>
          <circle class="cls-199" cx="106.22" cy="41.11" r="8.98"/>
          <circle class="cls-40" cx="106.56" cy="40.64" r="8.98"/>
          <circle class="cls-33" cx="106.87" cy="40.16" r="8.98"/>
          <circle class="cls-34" cx="107.15" cy="39.66" r="8.98"/>
          <circle class="cls-30" cx="107.38" cy="39.16" r="8.98"/>
          <circle class="cls-31" cx="107.58" cy="38.65" r="8.98"/>
          <circle class="cls-32" cx="107.75" cy="38.12" r="8.98"/>
          <circle class="cls-236" cx="107.87" cy="37.59" r="8.98"/>
          <circle class="cls-237" cx="107.95" cy="37.06" r="8.98"/>
          <circle class="cls-238" cx="108" cy="36.52" r="8.98"/>
          <circle class="cls-37" cx="108" cy="35.97" r="8.98"/>
          <circle class="cls-38" cx="107.96" cy="35.43" r="8.98"/>
          <circle class="cls-36" cx="107.88" cy="34.89" r="8.98"/>
          <circle class="cls-217" cx="107.76" cy="34.36" r="8.98"/>
          <circle class="cls-220" cx="107.61" cy="33.84" r="8.98"/>
          <circle class="cls-219" cx="107.41" cy="33.32" r="8.98"/>
          <circle class="cls-197" cx="107.18" cy="32.82" r="8.98"/>
          <circle class="cls-198" cx="106.91" cy="32.32" r="8.98"/>
          <circle class="cls-196" cx="106.6" cy="31.84" r="8.98"/>
          <circle class="cls-170" cx="106.26" cy="31.37" r="8.98"/>
          <circle class="cls-169" cx="105.89" cy="30.91" r="8.98"/>
          <circle class="cls-171" cx="105.48" cy="30.46" r="8.98"/>
          <circle class="cls-159" cx="105.04" cy="30.03" r="8.98"/>
          <circle class="cls-160" cx="104.57" cy="29.62" r="8.98"/>
          <circle class="cls-162" cx="104.07" cy="29.22" r="8.98"/>
          <circle class="cls-161" cx="103.54" cy="28.84" r="8.98"/>
          <circle class="cls-156" cx="102.98" cy="28.48" r="8.98"/>
          <circle class="cls-157" cx="102.39" cy="28.14" r="8.98"/>
          <circle class="cls-158" cx="101.78" cy="27.81" r="8.98"/>
          <circle class="cls-167" cx="101.14" cy="27.51" r="8.98"/>
          <circle class="cls-166" cx="100.47" cy="27.23" r="8.98"/>
          <circle class="cls-164" cx="99.78" cy="26.97" r="8.98"/>
          <circle class="cls-151" cx="99.07" cy="26.74" r="8.98"/>
          <circle class="cls-154" cx="98.49" cy="26.52" r="8.98"/>
          <circle class="cls-153" cx="97.91" cy="26.29" r="8.98"/>
          <circle class="cls-240" cx="97.33" cy="26.07" r="8.98"/>
          <circle class="cls-241" cx="96.75" cy="25.85" r="8.98"/>
          <circle class="cls-239" cx="96.17" cy="25.63" r="8.98"/>
          <circle class="cls-204" cx="95.59" cy="25.41" r="8.98"/>
          <circle class="cls-205" cx="95.01" cy="25.18" r="8.98"/>
          <circle class="cls-206" cx="94.43" cy="24.96" r="8.98"/>
          <circle class="cls-178" cx="93.85" cy="24.74" r="8.98"/>
          <circle class="cls-180" cx="93.27" cy="24.52" r="8.98"/>
          <circle class="cls-181" cx="92.69" cy="24.3" r="8.98"/>
          <circle class="cls-69" cx="92.11" cy="24.08" r="8.98"/>
          <circle class="cls-68" cx="91.53" cy="23.85" r="8.98"/>
          <circle class="cls-67" cx="90.95" cy="23.63" r="8.98"/>
          <circle class="cls-72" cx="90.37" cy="23.41" r="8.98"/>
          <circle class="cls-71" cx="89.79" cy="23.19" r="8.98"/>
          <circle class="cls-70" cx="89.21" cy="22.97" r="8.98"/>
          <circle class="cls-95" cx="88.63" cy="22.75" r="8.98"/>
          <circle class="cls-93" cx="88.05" cy="22.52" r="8.98"/>
          <circle class="cls-94" cx="87.47" cy="22.3" r="8.98"/>
          <circle class="cls-81" cx="86.89" cy="22.08" r="8.98"/>
          <circle class="cls-83" cx="86.31" cy="21.86" r="8.98"/>
          <circle class="cls-82" cx="85.73" cy="21.64" r="8.98"/>
          <circle class="cls-84" cx="85.15" cy="21.41" r="8.98"/>
          <circle class="cls-87" cx="84.57" cy="21.19" r="8.98"/>
          <circle class="cls-86" cx="83.99" cy="20.97" r="8.98"/>
          <circle class="cls-85" cx="83.41" cy="20.75" r="8.98"/>
          <circle class="cls-90" cx="82.83" cy="20.53" r="8.98"/>
          <circle class="cls-91" cx="82.25" cy="20.31" r="8.98"/>
          <circle class="cls-92" cx="81.67" cy="20.08" r="8.98"/>
          <circle class="cls-75" cx="81.09" cy="19.86" r="8.98"/>
          <circle class="cls-74" cx="80.51" cy="19.64" r="8.98"/>
          <circle class="cls-76" cx="79.93" cy="19.42" r="8.98"/>
          <circle class="cls-78" cx="79.35" cy="19.2" r="8.98"/>
          <circle class="cls-77" cx="78.77" cy="18.97" r="8.98"/>
          <circle class="cls-80" cx="78.19" cy="18.75" r="8.98"/>
          <circle class="cls-112" cx="77.61" cy="18.53" r="8.98"/>
          <circle class="cls-113" cx="77.03" cy="18.32" r="8.98"/>
        </g>
        <circle class="cls-42" cx="76.96" cy="54.13" r="8.98"/>
      </g>
    </g>
  </g>
  <g>
    <polygon class="cls-3" points="162.12 21.86 159.9 21.86 159.9 33.61 154.75 33.61 154.75 21.86 152.53 21.86 152.53 35.83 161.68 35.83 161.68 38.71 163.82 38.71 163.82 33.61 162.12 33.61 162.12 21.86"/>
    <polygon class="cls-3" points="165.5 35.83 175.94 35.83 175.94 33.65 167.7 33.65 167.7 29.69 174.67 29.69 174.67 27.51 167.7 27.51 167.7 24.04 175.94 24.04 175.94 21.86 165.5 21.86 165.5 35.83"/>
    <polygon class="cls-3" points="180.31 29.65 185.96 29.65 185.96 35.83 188.21 35.83 188.21 21.86 185.96 21.86 185.96 27.47 180.31 27.47 180.31 21.86 178.04 21.86 178.04 35.83 180.31 35.83 180.31 29.65"/>
    <polygon class="cls-3" points="190.07 24.06 194.79 24.06 194.75 35.83 197.06 35.83 197.02 24.06 201.72 24.06 201.72 21.86 190.07 21.86 190.07 24.06"/>
    <path class="cls-3" d="m203.59,21.86v13.98h2.2v-5.29h6.01l2.48-2.54v-3.6l-2.48-2.54h-8.22Zm8.49,5.25l-1.18,1.23h-5.1v-4.28h5.1l1.18,1.25v1.8Z"/>
    <polygon class="cls-3" points="238.15 38.71 240.29 38.71 240.29 33.61 238.59 33.61 238.59 21.86 236.37 21.86 236.37 33.61 231.22 33.61 231.22 21.86 229 21.86 229 35.83 238.15 35.83 238.15 38.71"/>
    <polygon class="cls-3" points="244.19 31.89 244.13 31.89 244.19 21.86 241.97 21.86 241.97 35.83 244.42 35.83 249.89 25.99 249.99 25.99 249.93 35.83 252.13 35.83 252.13 21.86 249.84 21.86 244.19 31.89"/>
    <path class="cls-3" d="m260.71,22.6v-1.16h-2.16l.02,1.16h-1.42l-2.94,3.11v5.76l2.94,3.13h1.42l-.02,1.23h2.16v-1.23h1.36l2.94-3.13v-5.76l-2.94-3.11h-1.36Zm-2.16,9.81h-.57l-1.57-1.72v-4.17l1.57-1.72h.57v7.6Zm4.26-1.72l-1.57,1.72h-.53v-7.6h.53l1.57,1.72v4.17Z"/>
    <path class="cls-3" d="m269.28,30.54h6.01l2.48-2.54v-3.6l-2.48-2.54h-8.22v13.98h2.2v-5.29Zm0-6.48h5.1l1.18,1.25v1.8l-1.18,1.23h-5.1v-4.28Z"/>
    <path class="cls-3" d="m303.27,30.12l-1.5-1.27v-.19l1.5-1.27v-3.2l-2.48-2.33h-8.01v13.98h8.01l2.48-2.33v-3.39Zm-2.2,2.27l-1.31,1.25h-4.76v-3.85h4.83l1.25,1.12v1.48Zm0-5.76l-1.19.99h-4.89v-3.56h4.83l1.25,1.18v1.38Z"/>
    <rect class="cls-3" x="313.85" y="21.86" width="2.12" height="13.98"/>
    <path class="cls-3" d="m312.68,33.29v-3.6l-2.48-2.54h-2.63v-5.29h-2.12v13.98h4.74l2.48-2.54Zm-5.1.4v-4.43h1.76l1.21,1.23v1.97l-1.21,1.23h-1.76Z"/>
    <polygon class="cls-3" points="328.12 23.49 328.12 21.86 326.49 21.86 323.27 27.02 323.18 27.02 319.97 21.86 318.34 21.86 318.34 23.49 321.83 28.74 317.93 34.18 317.93 35.83 319.56 35.83 323.18 30.48 323.27 30.48 326.89 35.83 328.52 35.83 328.52 34.18 324.63 28.74 328.12 23.49"/>
    <polygon class="cls-3" points="160.45 52.46 160.55 52.46 160.49 62.3 162.69 62.3 162.69 48.33 160.41 48.33 154.75 58.36 154.69 58.36 154.75 48.33 152.53 48.33 152.53 62.3 154.98 62.3 160.45 52.46"/>
    <path class="cls-3" d="m192.79,53.41v-2.86h7.9v-2.22l-10.1.02v13.96h8.32l2.48-2.54v-3.81l-2.48-2.54h-6.12Zm6.39,5.44l-1.18,1.25h-5.21v-4.49h5.21l1.18,1.23v2.01Z"/>
    <path class="cls-3" d="m203.3,48.33v13.98h2.2v-5.29h6.01l2.48-2.54v-3.6l-2.48-2.54h-8.22Zm8.49,5.25l-1.18,1.23h-5.1v-4.28h5.1l1.18,1.25v1.8Z"/>
    <path class="cls-3" d="m217.61,59.3h5.34l.99,3.01h1.84v-1.65l-4.19-12.32h-2.63l-4.19,12.32v1.65h1.84l.99-3.01Zm2.56-7.71h.19l1.89,5.61h-3.94l1.86-5.61Z"/>
    <polygon class="cls-3" points="235.44 62.3 238.34 59.66 238.34 56.63 236.54 55.27 236.54 55.19 238.34 53.58 238.34 50.91 235.46 48.33 230.47 48.33 227.54 50.95 227.54 53.05 229.81 53.05 229.81 51.86 231.27 50.53 234.64 50.53 236.14 51.86 236.14 52.8 234.66 54.19 230.85 54.19 230.85 56.33 234.75 56.33 236.14 57.48 236.14 58.77 234.64 60.1 231.25 60.1 229.79 58.77 229.79 57.6 227.54 57.6 227.54 59.66 230.47 62.3 235.44 62.3"/>
    <path class="cls-3" d="m253.46,48.33v13.98h8.01l2.48-2.33v-3.39l-1.5-1.27v-.19l1.5-1.27v-3.2l-2.48-2.33h-8.01Zm8.28,10.52l-1.31,1.25h-4.76v-3.85h4.83l1.25,1.12v1.48Zm0-5.76l-1.19.99h-4.89v-3.56h4.83l1.25,1.18v1.38Z"/>
    <path class="cls-3" d="m269.96,48.33l-4.19,12.32v1.65h1.84l.99-3.01h5.34l.99,3.01h1.84v-1.65l-4.19-12.32h-2.63Zm-.66,8.87l1.86-5.61h.19l1.89,5.61h-3.94Z"/>
    <polygon class="cls-3" points="276.77 50.53 281.49 50.53 281.45 62.3 283.76 62.3 283.72 50.53 288.42 50.53 288.42 48.33 276.77 48.33 276.77 50.53"/>
    <polygon class="cls-3" points="290.29 62.3 300.73 62.3 300.73 60.12 292.49 60.12 292.49 56.16 299.46 56.16 299.46 53.98 292.49 53.98 292.49 50.51 300.73 50.51 300.73 48.33 290.29 48.33 290.29 62.3"/>
    <polygon class="cls-3" points="305.02 58.47 304.3 60.1 302.41 60.1 302.41 62.3 305.69 62.3 307.24 59 307.24 50.53 311.18 50.53 311.18 62.3 313.42 62.3 313.42 48.33 305.02 48.33 305.02 58.47"/>
    <path class="cls-3" d="m318.09,53.62v-5.29h-2.22v13.98h8.34l2.48-2.54v-3.6l-2.48-2.54h-6.12Zm6.39,5.23l-1.18,1.25h-5.21v-4.28h5.21l1.18,1.23v1.8Z"/>
    <polygon class="cls-3" points="336.52 53.94 330.87 53.94 330.87 48.33 328.6 48.33 328.6 62.3 330.87 62.3 330.87 56.12 336.52 56.12 336.52 62.3 338.77 62.3 338.77 48.33 336.52 48.33 336.52 53.94"/>
    <path class="cls-3" d="m343.33,53.62v-5.29h-2.12v13.98h4.74l2.48-2.54v-3.6l-2.48-2.54h-2.63Zm2.97,5.32l-1.21,1.23h-1.76v-4.43h1.76l1.21,1.23v1.97Z"/>
    <rect class="cls-3" x="349.59" y="48.33" width="2.12" height="13.98"/>
    <polygon class="cls-3" points="360.37 55.21 363.86 49.96 363.86 48.33 362.23 48.33 359.01 53.49 358.93 53.49 355.71 48.33 354.08 48.33 354.08 49.96 357.57 55.21 353.68 60.65 353.68 62.3 355.31 62.3 358.93 56.95 359.01 56.95 362.63 62.3 364.27 62.3 364.27 60.65 360.37 55.21"/>
    <path class="cls-3" d="m152.53,74.8v13.98h2.2v-5.29h6.01l2.48-2.54v-3.6l-2.48-2.54h-8.22Zm8.49,5.25l-1.18,1.23h-5.1v-4.28h5.1l1.18,1.25v1.8Z"/>
    <polygon class="cls-3" points="165.19 88.77 175.63 88.77 175.63 86.59 167.39 86.59 167.39 82.63 174.36 82.63 174.36 80.45 167.39 80.45 167.39 76.98 175.63 76.98 175.63 74.8 165.19 74.8 165.19 88.77"/>
    <polygon class="cls-3" points="186.2 86.59 183.91 86.59 183.91 74.8 182 74.8 182 86.59 179.72 86.59 179.72 74.8 177.6 74.8 177.6 88.77 188.31 88.77 188.31 74.8 186.2 74.8 186.2 86.59"/>
    <polygon class="cls-3" points="190.63 88.77 201.07 88.77 201.07 86.59 192.83 86.59 192.83 82.63 199.8 82.63 199.8 80.45 192.83 80.45 192.83 76.98 201.07 76.98 201.07 74.8 190.63 74.8 190.63 88.77"/>
    <polygon class="cls-3" points="211.09 80.41 205.44 80.41 205.44 74.8 203.17 74.8 203.17 88.77 205.44 88.77 205.44 82.59 211.09 82.59 211.09 88.77 213.34 88.77 213.34 74.8 211.09 74.8 211.09 80.41"/>
    <polygon class="cls-3" points="218.01 84.84 217.94 84.84 218.01 74.8 215.78 74.8 215.78 88.77 218.24 88.77 223.7 78.93 223.81 78.93 223.74 88.77 225.95 88.77 225.95 74.8 223.66 74.8 218.01 84.84"/>
    <polygon class="cls-3" points="229.87 70.27 229.87 72.28 231.31 73.74 235.44 73.74 236.88 72.28 236.88 70.27 234.87 70.27 234.87 71.41 234.42 71.88 232.33 71.88 231.88 71.43 231.88 70.27 229.87 70.27"/>
    <polygon class="cls-3" points="230.61 84.84 230.55 84.84 230.61 74.8 228.39 74.8 228.39 88.77 230.84 88.77 236.31 78.93 236.41 78.93 236.35 88.77 238.55 88.77 238.55 74.8 236.26 74.8 230.61 84.84"/>
    <path class="cls-3" d="m287.34,35.83l3.05-3.28v-7.41l-3.05-3.28h-4.7l-3.05,3.28v7.41l3.05,3.28h4.7Zm.64-10.06l.2.22v5.72l-1.8,1.93h-2.8l-.21-.23,4.61-7.64Zm-6.19,5.94v-5.72l1.8-1.93h2.8l.2.22-4.6,7.64-.2-.21Z"/>
    <path class="cls-3" d="m243.3,48.33l-3.05,3.28v7.41l3.05,3.28h4.7l3.05-3.28v-7.41l-3.05-3.28h-4.7Zm-.65,10.06l-.2-.21v-5.72l1.8-1.93h2.8l.2.22-4.6,7.64Zm6.2-5.93v5.72l-1.8,1.93h-2.8l-.21-.23,4.61-7.64.2.22Z"/>
    <path class="cls-3" d="m180.67,48.33l-3.05,3.28v7.41l3.05,3.28h4.7l3.05-3.28v-7.41l-3.05-3.28h-4.7Zm-.65,10.06l-.2-.21v-5.72l1.8-1.93h2.8l.2.22-4.6,7.64Zm6.2-5.93v5.72l-1.8,1.93h-2.8l-.21-.23,4.61-7.64.2.22Z"/>
  </g>
</svg>